<svg xmlns="http://www.w3.org/2000/svg" width="95" height="24" viewBox="0 0 95 24" fill="none">
  <path d="M30.3981 4.15479C30.376 4.14111 30.3541 4.12672 30.333 4.11163L29.5065 0L25.3929 0.8471C25.3666 0.829906 25.3406 0.812711 25.3143 0.795867C25.2952 0.824291 25.2803 0.8471 25.2616 0.87412L20.247 1.90755L23.2545 3.92459C20.8993 7.50775 18.5482 11.0944 16.1708 14.6625C15.7187 15.3411 15.1676 15.9893 14.5437 16.5037C12.6551 18.0618 10.0214 17.9688 8.113 16.3595C6.21919 14.7646 5.69992 12.1465 6.84619 9.96132C8.51622 6.77329 12.6669 6.16481 15.1517 8.79384C15.9231 9.61147 16.5286 10.5888 17.2693 11.5688C18.5357 9.64164 19.7686 7.77164 20.989 5.91742C18.1204 1.61805 12.9101 -0.245989 8.09048 1.26539C3.25081 2.78483 -0.0227439 7.2937 0.000119 12.4079C0.0240212 17.535 3.3343 22.0436 8.15111 23.5076C12.9793 24.9758 18.2392 23.0798 21.008 18.8285C23.4863 15.0204 25.9426 11.1976 28.4014 7.37651L31.3892 9.38197L30.3573 4.23585C30.3711 4.20883 30.3832 4.18286 30.3981 4.15479Z" fill="#6E747E"/>
  <path d="M29.63 19.3101L29.0123 18.3321H29.0075L29.0123 18.3247C27.8976 16.6007 26.7967 14.8974 25.6712 13.1565C24.4886 14.9553 23.3835 16.6189 22.3045 18.3019L21.9948 18.7739C22.7396 19.9796 23.6125 21.3338 24.4467 22.623C24.4494 22.6272 24.4522 22.6311 24.4546 22.635C24.7321 23.0501 25.1055 23.3926 25.5427 23.6301C25.975 23.8656 26.468 24 26.9921 24C28.6836 24 30.0564 22.6107 30.0564 20.8965C30.0564 20.3193 29.8991 19.782 29.6286 19.3195L29.63 19.3101Z" fill="#6E747E"/>
  <path d="M47.2847 8.08547C46.1014 7.38646 44.7674 7.03169 43.3211 7.03169C41.8759 7.03169 40.5346 7.38541 39.3339 8.08302C38.1333 8.78273 37.1789 9.75476 36.4982 10.971C35.8193 12.1852 35.475 13.5513 35.475 15.0307C35.475 16.5063 35.7943 17.8668 36.4238 19.0735C37.0577 20.2919 37.9435 21.2611 39.0568 21.9559C40.1754 22.6518 41.4352 23.0051 42.8025 23.0051C43.9013 23.0051 44.944 22.7697 45.9011 22.3054C46.364 22.0801 46.7963 21.8096 47.1943 21.4952C47.2864 21.8142 47.4531 22.1002 47.6893 22.3388C48.0672 22.723 48.5636 22.9258 49.1255 22.9258C49.6877 22.9258 50.1845 22.7227 50.56 22.3398C50.9393 21.9563 51.1399 21.4534 51.1399 20.8849V15.0311C51.1399 13.5488 50.79 12.182 50.1013 10.9679C49.4144 9.75546 48.4666 8.78554 47.2847 8.08547ZM43.3211 10.798C44.0631 10.798 44.713 10.9752 45.3071 11.3391C45.9043 11.7062 46.3601 12.1978 46.701 12.8421C47.0426 13.4899 47.2158 14.2257 47.2158 15.0307C47.2158 15.835 47.0429 16.5666 46.7027 17.2042C46.3612 17.8426 45.9046 18.3303 45.3074 18.6963C44.7133 19.0609 44.0635 19.2385 43.3211 19.2385C42.5788 19.2385 41.9289 19.0609 41.3341 18.6956C40.7348 18.3289 40.2731 17.8397 39.9235 17.1993C39.5719 16.5551 39.4011 15.8459 39.4011 15.0303C39.4011 14.2261 39.5775 13.4916 39.9249 12.8477C40.2741 12.2006 40.7355 11.7069 41.3344 11.3391C41.9292 10.9752 42.5794 10.798 43.3211 10.798Z" fill="#6E747E"/>
  <path d="M57.9668 18.871H57.3187C57.2626 18.871 57.1462 18.871 56.9844 18.5896C56.806 18.2797 56.7159 17.8597 56.7159 17.3417V3.0084C56.7159 2.44097 56.5202 1.94268 56.1495 1.5672C55.7796 1.19208 55.2877 0.993464 54.7275 0.993464C54.1667 0.993464 53.6745 1.19173 53.3045 1.5672C52.9342 1.94268 52.7385 2.44097 52.7385 3.0084V17.3421C52.7385 18.3629 52.9241 19.3019 53.291 20.1339C53.671 20.9965 54.219 21.6786 54.9205 22.1611C55.6317 22.651 56.4388 22.8998 57.319 22.8998H57.371C58.0382 22.8998 58.6038 22.73 59.0517 22.3952C59.5578 22.0176 59.8256 21.4955 59.8256 20.8849C59.8256 20.3259 59.658 19.8511 59.3251 19.4714C58.9762 19.0787 58.5068 18.871 57.9668 18.871Z" fill="#6E747E"/>
  <path d="M65.2218 18.871H64.5743C64.5182 18.871 64.4018 18.871 64.24 18.5903C64.0616 18.2797 63.9716 17.8597 63.9716 17.3417V3.0084C63.9716 2.44167 63.7762 1.94338 63.4052 1.5665C63.0345 1.19173 62.5426 0.993464 61.9832 0.993464C61.423 0.993464 60.9311 1.19138 60.5601 1.5672C60.1905 1.94198 59.9948 2.44027 59.9948 3.0084V17.3421C59.9948 18.3636 60.1801 19.3033 60.547 20.1353C60.9287 20.9979 61.4774 21.6793 62.1761 22.1611C62.8873 22.651 63.6937 22.8998 64.5747 22.8998H64.6266C65.2948 22.8998 65.8609 22.73 66.3077 22.3952C66.8138 22.0173 67.0813 21.4951 67.0813 20.8852C67.0813 20.3241 66.9129 19.849 66.5814 19.4731C66.2336 19.0794 65.7635 18.871 65.2218 18.871Z" fill="#6E747E"/>
  <path d="M79.4204 9.62345C79.4595 9.49712 79.4779 9.34693 79.4779 9.15112C79.4779 8.67178 79.2794 7.99312 78.3337 7.48149C77.7084 7.14356 76.8985 6.97898 75.8576 6.97898C74.8977 6.97898 73.9814 7.17655 73.1345 7.56641C72.7375 7.74923 72.3678 7.9661 72.027 8.21559C71.7405 7.52676 71.1038 7.13654 70.207 7.13654C69.6063 7.13654 69.1196 7.31972 68.7583 7.68326C68.4004 8.04575 68.2189 8.53913 68.2189 9.15147V20.8852C68.2189 21.5183 68.4029 22.0194 68.7687 22.377C69.1262 22.7237 69.6101 22.8998 70.2066 22.8998C70.8312 22.8998 71.3259 22.7128 71.6778 22.3436C72.0218 21.9815 72.1964 21.4906 72.1964 20.8852V13.2199C72.1964 12.456 72.4704 11.8921 73.0589 11.4443C73.6936 10.9625 74.5651 10.7186 75.6497 10.7186C76.036 10.7186 76.5625 10.7769 77.1971 10.8885C77.4199 10.9337 77.5862 10.9548 77.7223 10.9548C78.5651 10.9552 79.1862 10.4628 79.4204 9.62345Z" fill="#6E747E"/>
  <path d="M92.9986 10.9672C92.3096 9.75371 91.3618 8.78414 90.182 8.08512C88.9983 7.38646 87.6643 7.03169 86.218 7.03169C84.7721 7.03169 83.4312 7.38541 82.2319 8.08302C81.0327 8.78133 80.0787 9.75265 79.3955 10.971C78.7169 12.1834 78.3733 13.5495 78.3733 15.0307C78.3733 16.5063 78.692 17.8664 79.3204 19.0739C79.9557 20.2926 80.8425 21.2618 81.9545 21.9552C83.0706 22.6514 84.3301 23.0048 85.6998 23.0048C86.7979 23.0048 87.8406 22.7693 88.7984 22.3051C89.2616 22.0798 89.6935 21.8093 90.0916 21.4952C90.1837 21.8142 90.35 22.0998 90.5859 22.3377C90.9631 22.7223 91.4599 22.9255 92.0228 22.9255C92.5836 22.9255 93.0804 22.7227 93.4586 22.3395C93.8369 21.957 94.0371 21.4541 94.0371 20.8846V15.0311C94.0371 13.5481 93.6876 12.181 92.9986 10.9672ZM86.218 10.798C86.96 10.798 87.6099 10.9752 88.2036 11.3395C88.8019 11.7062 89.2578 12.1978 89.5979 12.8421C89.9388 13.4892 90.112 14.225 90.112 15.0307C90.112 15.8357 89.9395 16.5677 89.5993 17.2046C89.2585 17.8429 88.8022 18.3303 88.2033 18.6963C87.6102 19.0609 86.9607 19.2385 86.218 19.2385C85.4757 19.2385 84.8258 19.0609 84.2307 18.6953C83.6318 18.3296 83.17 17.8401 82.8205 17.1993C82.4685 16.5544 82.2981 15.8452 82.2981 15.0304C82.2981 14.2268 82.4741 13.492 82.8219 12.8473C83.1717 12.1999 83.6325 11.7065 84.2314 11.3391C84.8262 10.9752 85.4764 10.798 86.218 10.798Z" fill="#6E747E"/>
</svg>