<svg width="92" height="24" viewBox="0 0 92 24" fill="none" xmlns="http://www.w3.org/2000/svg">
<path d="M44.2948 8.14161C43.0656 7.43351 41.6693 7.06729 40.2507 7.08093C38.8257 7.06883 37.423 7.43482 36.1855 8.14161C34.9748 8.83024 33.9742 9.83523 33.2908 11.049C32.5946 12.2987 32.2376 13.709 32.2555 15.1395C32.2386 16.5563 32.571 17.9554 33.2232 19.2132C33.8401 20.4062 34.7689 21.4095 35.9108 22.1163C37.1779 22.8903 38.6506 23.2604 40.133 23.1774C41.6155 23.0944 43.0376 22.5622 44.2103 21.6515C44.3541 22.1253 44.6639 22.5314 45.0828 22.7953C45.5018 23.0592 46.0019 23.1632 46.4913 23.0882C46.9807 23.0132 47.4267 22.7643 47.7475 22.3871C48.0682 22.0099 48.2422 21.5297 48.2375 21.0345V15.1395C48.2533 13.7047 47.8872 12.2915 47.1768 11.0447C46.4893 9.83962 45.4949 8.83799 44.2948 8.14161ZM40.2507 10.8757C40.9646 10.8634 41.6676 11.0523 42.2791 11.4208C42.8794 11.7814 43.3702 12.2985 43.699 12.9168C44.0546 13.597 44.2347 14.3552 44.223 15.1226C44.2357 15.8843 44.0569 16.6369 43.7032 17.3116C43.3738 17.933 42.8816 18.4531 42.2791 18.816C41.6627 19.1729 40.963 19.3608 40.2507 19.3608C39.5385 19.3608 38.8388 19.1729 38.2224 18.816C37.6198 18.4474 37.1244 17.9272 36.7856 17.3074C36.422 16.6375 36.2385 15.8847 36.2531 15.1226C36.2411 14.3568 36.4244 13.6006 36.7856 12.9252C37.1193 12.2983 37.6156 11.7729 38.2224 11.4039C38.8357 11.0413 39.5385 10.8583 40.2507 10.8757Z" fill="#18A0FB"/>
<path d="M55.1932 19.0062H54.534C54.4749 19.0062 54.3565 19.0062 54.1917 18.723C53.9903 18.3319 53.8956 17.8947 53.917 17.4553V3.02838C53.917 2.49042 53.7033 1.9745 53.3229 1.5941C52.9426 1.2137 52.4266 1 51.8887 1C51.3507 1 50.8348 1.2137 50.4544 1.5941C50.074 1.9745 49.8603 2.49042 49.8603 3.02838V17.468C49.8483 18.4337 50.0398 19.3912 50.4223 20.2781C50.7727 21.1036 51.35 21.8128 52.0873 22.3234C52.8084 22.8141 53.6618 23.0735 54.534 23.0672H54.5847C55.1971 23.0883 55.7995 22.9087 56.3004 22.5558C56.5461 22.3858 56.7465 22.1583 56.8842 21.8932C57.0219 21.6281 57.0928 21.3333 57.0906 21.0345C57.107 20.5134 56.9241 20.0057 56.5793 19.6147C56.4061 19.4189 56.1925 19.2631 55.9532 19.158C55.7138 19.053 55.4546 19.0011 55.1932 19.0062Z" fill="#18A0FB"/>
<path d="M62.5969 19.0062H61.9377C61.8785 19.0062 61.7602 19.0062 61.5954 18.7272C61.3954 18.3356 61.3008 17.8988 61.3207 17.4595V3.02838C61.3207 2.49042 61.107 1.9745 60.7266 1.5941C60.3462 1.2137 59.8303 1 59.2923 1C58.7544 1 58.2384 1.2137 57.858 1.5941C57.4776 1.9745 57.2639 2.49042 57.2639 3.02838V17.468C57.2523 18.4351 57.4438 19.3939 57.826 20.2823C58.1806 21.1042 58.7571 21.8109 59.4909 22.3234C60.2118 22.8146 61.0654 23.0741 61.9377 23.0672H61.9884C62.6007 23.0883 63.2032 22.9087 63.7041 22.5558C63.9497 22.3858 64.1501 22.1583 64.2879 21.8932C64.4256 21.6281 64.4964 21.3333 64.4943 21.0345C64.5085 20.5138 64.3259 20.0068 63.983 19.6147C63.81 19.4187 63.5964 19.2627 63.357 19.1576C63.1176 19.0526 62.8583 19.0009 62.5969 19.0062Z" fill="#18A0FB"/>
<path d="M77.0829 9.69672C77.1277 9.54021 77.1476 9.37766 77.1421 9.21498C77.1421 8.73324 76.9393 8.05288 75.9758 7.52466C75.1854 7.14903 74.3143 6.97482 73.4403 7.01756C72.483 7.01242 71.536 7.21423 70.6639 7.60917C70.2677 7.78996 69.8911 8.01085 69.5399 8.2684C69.3829 7.916 69.1196 7.62147 68.787 7.42599C68.4544 7.23051 68.069 7.14386 67.6847 7.17814C67.4134 7.15866 67.141 7.19776 66.886 7.29281C66.6311 7.38786 66.3996 7.53662 66.2072 7.729C66.0148 7.92139 65.8661 8.1529 65.771 8.40783C65.676 8.66276 65.6369 8.93515 65.6564 9.20653V21.0388C65.6404 21.3148 65.6821 21.5912 65.7789 21.8502C65.8757 22.1092 66.0253 22.3452 66.2184 22.5432C66.416 22.7234 66.6473 22.8628 66.8989 22.9534C67.1506 23.0441 67.4176 23.0841 67.6847 23.0714C67.9601 23.0865 68.2355 23.0443 68.4937 22.9476C68.7519 22.8509 68.9873 22.7016 69.1849 22.5094C69.3654 22.3111 69.505 22.0791 69.5956 21.8267C69.6863 21.5744 69.7262 21.3066 69.7131 21.0388V13.314C69.6988 12.9659 69.7722 12.6198 69.9265 12.3075C70.0808 11.9951 70.3111 11.7266 70.5963 11.5265C71.3772 11.0035 72.3076 10.7497 73.2459 10.8039C73.7766 10.8184 74.3052 10.8763 74.8264 10.9771C75.0012 11.017 75.1795 11.0397 75.3588 11.0448C75.7578 11.0543 76.1478 10.9252 76.4622 10.6794C76.7766 10.4335 76.996 10.0862 77.0829 9.69672Z" fill="#18A0FB"/>
<path d="M90.9394 11.0447C90.2541 9.8407 89.2628 8.83916 88.0658 8.14161C86.8366 7.43351 85.4403 7.06729 84.0217 7.08093C82.5955 7.06949 81.1915 7.43542 79.9523 8.14161C78.7395 8.83038 77.7362 9.83516 77.0492 11.049C76.3514 12.2985 75.9916 13.7084 76.0054 15.1395C75.9884 16.5563 76.3208 17.9554 76.9731 19.2132C77.5923 20.4045 78.5206 21.4072 79.6607 22.1163C80.9284 22.8907 82.4018 23.261 83.885 23.1779C85.3682 23.0949 86.791 22.5625 87.9644 21.6515C88.0592 21.9706 88.232 22.2611 88.4673 22.4967C88.7551 22.789 89.1238 22.9887 89.526 23.07C89.9282 23.1513 90.3455 23.1105 90.7243 22.9529C91.1031 22.7953 91.4262 22.528 91.652 22.1854C91.8778 21.8429 91.9961 21.4406 91.9916 21.0303V15.1395C92.0099 13.7055 91.6468 12.2923 90.9394 11.0447ZM84.0217 10.8757C84.7342 10.8642 85.4356 11.0531 86.0459 11.4208C86.6484 11.7799 87.1409 12.2973 87.47 12.9168C87.824 13.5975 88.0041 14.3554 87.994 15.1226C88.0098 15.8851 87.8294 16.6389 87.47 17.3116C87.2144 17.7774 86.8677 18.1871 86.4506 18.5163C86.0335 18.8454 85.5544 19.0874 85.042 19.2277C84.5295 19.3681 83.994 19.4039 83.4674 19.3332C82.9408 19.2625 82.4337 19.0866 81.9764 18.816C81.3699 18.451 80.8723 17.93 80.5354 17.3074C80.1762 16.6421 79.9942 15.8955 80.0072 15.1395C79.9967 14.3734 80.1814 13.6172 80.5439 12.9421C80.875 12.3134 81.3718 11.7873 81.9807 11.4208C82.5959 11.05 83.3035 10.861 84.0217 10.8757Z" fill="#18A0FB"/>
<path d="M28.503 4.84968L28.4438 4.81165L27.6663 1.00842L23.8039 1.78597L23.7321 1.73949L23.6814 1.81133L18.9823 2.77481L21.8051 4.64261C19.595 7.95565 17.3934 11.2771 15.1621 14.5775C14.7374 15.2112 14.2237 15.7805 13.6366 16.2678C12.7764 16.9587 11.6999 17.324 10.5969 17.2993C9.49378 17.2745 8.4348 16.8614 7.6064 16.1326C6.75099 15.4387 6.16437 14.4682 5.94762 13.3883C5.73086 12.3084 5.89755 11.1867 6.41895 10.2165C6.77192 9.53122 7.28444 8.94088 7.9133 8.49518C8.54217 8.04947 9.26896 7.76145 10.0324 7.65541C10.7959 7.54936 11.5737 7.62838 12.3002 7.88582C13.0267 8.14325 13.6807 8.57156 14.2071 9.13465C14.9135 9.95589 15.5764 10.8135 16.1932 11.7039L19.6795 6.47239C18.3978 4.55534 16.5335 3.10126 14.3621 2.32485C12.1906 1.54844 9.82709 1.49086 7.62041 2.16061C5.41373 2.83035 3.4809 4.19193 2.10731 6.04428C0.733725 7.89664 -0.0078125 10.1416 -0.0078125 12.4477C-0.0078125 14.7538 0.733725 16.9987 2.10731 18.8511C3.4809 20.7034 5.41373 22.065 7.62041 22.7347C9.82709 23.4045 12.1906 23.3469 14.3621 22.5705C16.5335 21.7941 18.3978 20.34 19.6795 18.423C22.0009 14.8986 24.311 11.3659 26.6098 7.82464L29.4116 9.67977L28.4523 4.92574L28.503 4.84968Z" fill="url(#paint0_linear_126_7175)"/>
<path d="M27.7846 18.8794L27.1846 17.9877L24.0532 13.2041C22.9461 14.8691 21.9108 16.4073 20.8966 17.9666L20.605 18.3892C21.3065 19.5048 22.122 20.7598 22.908 21.9515C23.2528 22.4605 23.7518 22.8455 24.3316 23.05C24.9114 23.2544 25.5415 23.2675 26.1293 23.0874C26.7171 22.9072 27.2316 22.5433 27.5973 22.049C27.9629 21.5548 28.1604 20.9563 28.1607 20.3415C28.1543 19.8262 28.0083 19.3224 27.7381 18.8836L27.7846 18.8794Z" fill="url(#paint1_linear_126_7175)"/>
<defs>
<linearGradient id="paint0_linear_126_7175" x1="-4.52367e-05" y1="12.1096" x2="29.4327" y2="12.1096" gradientUnits="userSpaceOnUse">
<stop stop-color="#18A0FB"/>
<stop offset="1" stop-color="#36D3FF"/>
</linearGradient>
<linearGradient id="paint1_linear_126_7175" x1="1535.3" y1="1069.2" x2="1670.48" y2="1069.2" gradientUnits="userSpaceOnUse">
<stop stop-color="#18A0FB"/>
<stop offset="1" stop-color="#36D3FF"/>
</linearGradient>
</defs>
</svg>
