<svg width="106" height="48" viewBox="0 0 106 48" fill="none" xmlns="http://www.w3.org/2000/svg">
<rect width="106" height="48" fill="white"/>
<path d="M27.3228 24.2224L27.1333 24.0983C26.4949 23.4364 25.602 23.1468 24.4149 23.2192C23.4224 23.2813 22.6393 23.6898 22.0358 24.0672V24.0414C22.0358 23.7208 22.0707 23.3692 22.1056 23.0331C22.1405 22.6866 22.1754 22.335 22.1754 22.0041C22.1754 21.6732 22.1405 21.3474 22.0258 21.0682C21.9959 21.001 21.936 20.9544 21.8562 20.9544C21.537 20.9596 20.9085 21.1871 20.7589 21.3267L20.6791 21.5129C20.6791 21.88 20.5943 22.909 20.5145 23.0279L20.4746 23.152C20.3399 24.6154 20.3349 25.9081 20.4596 27.0146C20.4746 27.1284 20.6791 27.2938 20.8387 27.3507C21.0133 27.4179 21.5569 27.268 21.8712 27.1439L21.9909 27.1232C22.0906 27.1129 22.1505 27.025 22.1455 26.906L22.1555 26.5854C22.3799 25.6288 23.2977 24.4913 24.385 24.3206C24.9985 24.2224 25.4823 24.3827 25.8664 24.817C25.9213 24.8946 26.031 25.5823 25.627 26.3734C25.3277 26.9577 24.7242 27.449 23.9311 27.7592C23.183 28.0539 22.355 28.1729 21.3375 28.1367C21.2976 28.1057 20.3848 27.4696 20.3848 27.4696C19.5768 26.8802 18.5742 26.1511 17.6615 25.7943C17.5019 25.7323 17.2176 25.4841 17.043 25.3393L16.9482 25.2565C16.4245 24.8222 15.4269 24.1293 14.6239 23.576C14.6239 23.576 14.2648 23.3227 14.1949 23.2761V23.183C14.2199 23.1572 14.7237 22.8418 14.7237 22.8418C15.4319 22.4126 15.7561 22.2058 15.826 22.0972C15.811 22.1127 15.9207 22.0403 15.9207 22.0403C15.9257 22.0403 17.6714 21.0165 17.6714 21.0165C19.3523 20.0599 21.2527 18.974 22.2502 17.9036L22.3001 17.7382L22.3201 17.5934C22.3849 17.3659 22.3899 17.1901 22.335 16.9832C22.3201 16.9264 22.2702 16.8591 22.2004 16.8436C21.4223 16.7609 20.4147 17.2469 19.497 18.1363C19.2925 18.338 19.1179 18.4362 18.9334 18.5397L18.7937 18.6224C17.7862 19.217 15.5067 20.6804 14.3196 21.4715C14.3945 20.1426 14.6339 18.2553 14.9282 16.6833L14.8932 16.4972L14.7685 16.2593L14.6738 16.0887L14.6488 16.0783C14.4094 15.9542 14.2149 16.006 14.0752 16.0422L13.8358 16.1352L13.5216 16.2542C13.4617 16.2645 13.4169 16.3059 13.3919 16.3679C12.8233 17.7899 12.3495 20.1374 12.2347 22.0093C11.0975 21.2595 10.0501 20.7217 9.53136 20.4632L9.5164 20.4529L9.45654 20.4373C9.27199 20.4115 9.04256 20.2719 8.82808 20.1323C8.80314 20.1167 8.39414 19.8427 8.39414 19.8427L7.73575 19.4032L7.56118 19.3618C7.27688 19.4135 6.73321 19.791 6.56861 20.0495C6.54866 20.0857 6.53868 20.1219 6.53868 20.1581C6.53868 20.215 6.55365 20.2667 6.56861 20.3184L6.59854 20.458L6.62846 20.5408C6.94269 20.8769 7.74573 21.4405 8.52881 21.8748L9.43659 22.3712L10.8282 23.1572L11.0676 23.3537L11.2322 23.4519C11.2322 23.4519 11.2521 23.4623 11.2621 23.4726C10.893 23.7311 8.73331 25.2255 8.73331 25.2255L7.40157 26.1356C7.27688 26.2235 6.75316 26.4717 6.63345 26.5182C6.34416 26.6371 6.12968 26.8233 6.03491 27.0301L6 27.1077L6.03491 27.1594L6.13467 27.237L6.26934 27.33L6.41399 27.4334L6.55365 27.4541C6.78807 27.4645 7.13223 27.3249 7.78064 27.0301C8.37419 26.7561 9.99024 25.7478 10.6786 25.3186L10.9728 25.1376C11.0925 25.1479 11.2272 25.0394 11.3469 24.9463C11.4866 24.8325 11.7858 24.6412 11.9704 24.5585C11.9754 24.5585 12.0801 24.4964 12.1799 24.4395C12.1799 24.4706 12.1799 24.5223 12.1799 24.5223C12.2098 26.7095 12.3295 28.3021 12.5639 29.5276V29.5483L12.5889 29.5948C12.7036 29.7707 12.8333 30.2877 12.948 30.7428L13.2124 31.658L13.2872 31.7459C13.4368 31.8493 13.8957 32.0355 14.1999 31.9941L14.2748 31.9838L14.3246 31.87C14.3496 31.7356 14.3595 31.6011 14.3595 31.4512C14.3595 31.2857 14.3446 31.0996 14.3346 30.8772L14.3147 30.5463C14.2149 29.0157 14.1201 26.8129 14.1201 25.3444V25.2307C14.3695 25.391 15.4668 26.1097 15.4668 26.1097C17.3323 27.3662 20.1454 29.2587 21.8462 29.7603C21.936 29.7913 22.0308 29.7655 22.0906 29.7034L22.355 29.5276L22.4049 29.5069C22.5046 29.4604 22.5695 29.2898 22.5794 29.1036C24.0159 29.0312 26.016 28.4573 27.0834 27.0611C27.4974 26.5182 27.6819 25.8563 27.6819 25.2927C27.6819 24.8274 27.5573 24.4292 27.3328 24.2069" fill="#FCAF16"/>
<path d="M73.1355 22.6764H69.5143V19.5894H73.1355V22.6764ZM74.4473 18.4053H68.2075V23.8656H74.4473V18.4053Z" fill="#776C61"/>
<path d="M62.1377 22.9245V24.6308H65.9983V29.0984H64.6815V25.8098H56.9355V24.6308H60.821V22.9245H56.1274V21.7455H64.6167V19.3876H57.0801V18.2139H65.9384V21.7404H66.8811V22.9245H62.1377Z" fill="#776C61"/>
<path d="M77.6748 29.0516H69.395V25.0391H70.7118V27.8675H77.6748V29.0516Z" fill="#776C61"/>
<path d="M77.575 18.1416H76.2632V25.3135H77.575V18.1416Z" fill="#776C61"/>
<path d="M32.6001 18.2295H34.271V23.0952L39.9022 18.2295H42.2714L36.321 23.1366L42.7652 29.0934H40.396L34.271 23.271V29.0934H32.6001V18.2295Z" fill="#776C61"/>
<path d="M43.9321 18.2554H49.0845C51.5335 18.2554 52.8154 19.0982 52.8154 20.9442C52.8154 22.2576 51.9326 23.1573 50.7554 23.4003V23.4469C52.4413 23.6537 53.2394 24.8016 53.2394 26.0943C53.2394 27.718 52.0922 29.1192 49.2491 29.1192H43.9321V18.2554ZM45.603 22.8315H48.9997C50.2616 22.8315 51.1944 22.3351 51.1944 21.1769C51.1944 20.1686 50.7355 19.4912 48.8052 19.4912H45.5981V22.8315H45.603ZM45.603 27.8834H48.895C50.94 27.8834 51.4837 27.0509 51.4837 26.0012C51.4837 24.7551 50.6507 24.0622 48.8052 24.0622H45.5981V27.8834H45.603Z" fill="#776C61"/>
<path d="M78.9268 18.4258V19.6099H83.6203V21.2439H78.9268V22.4176H83.6203V25.5512H84.952V18.4258H78.9268Z" fill="#776C61"/>
<path d="M99.9998 27.1853H89.9395V28.3539H99.9998V27.1853Z" fill="#776C61"/>
<path d="M92.3189 19.5944H98.9178V18.4258H91.0171V24.7135H98.9178V23.5397H92.3189V19.5944Z" fill="#776C61"/>
<path d="M86.5479 29.0932H87.8746V22.0971H89.2113V20.913H87.8746V18.188H86.5479V29.0932Z" fill="#776C61"/>
</svg>
