<svg width="106" height="48" viewBox="0 0 106 48" fill="none" xmlns="http://www.w3.org/2000/svg">
<rect width="106" height="48" fill="white"/>
<path d="M27.1934 24.1916L27.0051 24.0727C26.3708 23.4381 25.4838 23.1654 24.3045 23.2348C23.3184 23.2943 22.5404 23.686 21.9409 24.0479C21.9409 24.038 21.9409 24.028 21.9409 24.0231C21.9409 23.7157 21.9755 23.3786 22.0102 23.0564C22.0449 22.7242 22.0796 22.392 22.0796 22.0747C22.0796 21.7575 22.0449 21.4402 21.9309 21.1774C21.9012 21.108 21.8417 21.0684 21.7625 21.0684C21.4453 21.0733 20.821 21.2914 20.6723 21.4253L20.5881 21.6038C20.5881 21.9558 20.5038 22.9423 20.4246 23.0613L20.3849 23.1803C20.2511 24.5883 20.2462 25.8227 20.3701 26.8836C20.3849 26.9877 20.5881 27.1464 20.7467 27.2059C20.9201 27.2703 21.4602 27.1265 21.7724 27.0076L21.8913 26.9877C21.9904 26.9778 22.0499 26.8935 22.0449 26.7795L22.0548 26.4721C22.2778 25.555 23.1896 24.4643 24.2698 24.3007C24.8793 24.2065 25.3599 24.3602 25.7415 24.7766C25.791 24.851 25.905 25.5104 25.5036 26.2689C25.2063 26.8291 24.6067 27.3001 23.8189 27.5975C23.0756 27.8801 22.253 27.9941 21.2422 27.9594C21.1976 27.9297 20.2957 27.3199 20.2957 27.3199C19.493 26.7547 18.497 26.0557 17.5902 25.7136C17.4316 25.6541 17.1492 25.4162 16.9757 25.2724L16.8816 25.198C16.3613 24.7816 15.3703 24.1173 14.5725 23.5868C14.5725 23.5868 14.2108 23.3439 14.1414 23.2993C14.1414 23.2695 14.1414 23.21 14.1414 23.21C14.1662 23.1853 14.6666 22.8828 14.6666 22.8828C15.3653 22.4714 15.6924 22.2731 15.7617 22.1689C15.7469 22.1838 15.8559 22.1144 15.8559 22.1144C15.8608 22.1144 17.5951 21.1328 17.5951 21.1328C19.265 20.2157 21.153 19.1746 22.144 18.1483L22.1936 17.9897L22.2134 17.8509C22.2778 17.6327 22.2828 17.4642 22.2283 17.2659C22.2134 17.2113 22.1638 17.1469 22.0945 17.132C21.3215 17.0527 20.3205 17.5187 19.4087 18.3714C19.2056 18.5648 19.0322 18.659 18.8488 18.7581L18.7101 18.8374C17.7091 19.4076 15.4496 20.8106 14.2653 21.5691C14.3445 20.295 14.5774 18.4854 14.8698 16.9783L14.8351 16.7999L14.7112 16.5718L14.6171 16.4082H14.5923C14.3545 16.2843 14.1612 16.3289 14.0225 16.3636L13.7846 16.4528L13.4675 16.5669C13.4031 16.5817 13.3634 16.6164 13.3386 16.6759C12.7737 18.0442 12.303 20.29 12.189 22.0847C11.0593 21.3658 10.0187 20.8502 9.50332 20.6023L9.48846 20.5924L9.42899 20.5776C9.24565 20.5528 9.01771 20.4189 8.80464 20.2851C8.77986 20.2702 8.37354 20.0074 8.37354 20.0074L7.71945 19.586L7.54602 19.5464C7.26357 19.596 6.72346 19.9579 6.56489 20.2057C6.54507 20.2404 6.53516 20.2751 6.53516 20.3098C6.53516 20.3644 6.55003 20.414 6.56489 20.4635L6.59462 20.5974L6.62435 20.6767C6.94149 20.999 7.73432 21.5344 8.51228 21.9558L9.41413 22.4317L10.7966 23.1853L11.0295 23.3736L11.193 23.4678C11.193 23.4678 11.2129 23.4777 11.2228 23.4877C10.8561 23.7355 8.71049 25.1683 8.71049 25.1683L7.39241 26.0458C7.26853 26.1301 6.74823 26.3631 6.62931 26.4126C6.34191 26.5316 6.12883 26.7101 6.03469 26.9034L6 26.9778L6.03469 27.0274L6.13379 27.1018L6.26758 27.191L6.41128 27.2901L6.55003 27.31C6.78292 27.3199 7.12483 27.186 7.769 26.9034C8.35867 26.6407 9.96415 25.674 10.648 25.2625L10.9403 25.089C11.0593 25.0989 11.193 24.9948 11.312 24.9055C11.4507 24.7965 11.748 24.613 11.9314 24.5337C11.9363 24.5337 12.0404 24.4742 12.1395 24.4197C12.1395 24.4494 12.1395 24.499 12.1395 24.499C12.1692 26.5961 12.2881 28.123 12.521 29.298V29.3178L12.5458 29.3674C12.6598 29.531 12.7886 30.0317 12.9026 30.468L13.1652 31.3455L13.2395 31.4297C13.3882 31.5289 13.8441 31.7074 14.1463 31.6677L14.2207 31.6578L14.2702 31.5537C14.295 31.4248 14.3049 31.2959 14.3049 31.1521C14.3049 30.9935 14.295 30.815 14.2801 30.6018L14.2603 30.2845C14.1662 28.822 14.0671 26.7051 14.0671 25.2972V25.1832C14.3148 25.3368 15.405 26.026 15.405 26.026C17.2582 27.2257 20.0529 29.0451 21.7426 29.526C21.8318 29.5508 21.921 29.531 21.9854 29.4715L22.2431 29.3029L22.2927 29.2831C22.3918 29.2385 22.4562 29.0749 22.4661 28.8964C23.8932 28.827 25.8802 28.2767 26.9406 26.9382C27.3519 26.4176 27.5353 25.783 27.5353 25.2427C27.5353 24.7965 27.4114 24.4147 27.1884 24.2016" fill="#FCAF16"/>
<path d="M64.204 27.6818H57.9951V25.4905H64.204V27.6818ZM65.5072 24.3552H56.6919V28.822H65.5072V24.3552Z" fill="#776C61"/>
<path d="M65.4522 21.9408V18.4556H56.7509V19.5809H64.1391V21.9457H55.7549V23.076H66.4432V21.9408H65.4522Z" fill="#776C61"/>
<path d="M77.989 23.8347V22.7044H67.3105V23.8347H69.7535V25.0592C68.8021 25.4559 68.2025 26.0904 68.2025 26.9778C68.2025 28.5791 70.1945 29.3872 72.6473 29.3872C75.1001 29.3872 77.0921 28.5791 77.0921 26.9778C77.0921 26.1003 76.4975 25.4658 75.5659 25.0692V23.8298H77.9939L77.989 23.8347ZM71.0616 23.8347H74.2577V24.7073C73.7573 24.623 73.2171 24.5784 72.6473 24.5784C72.0774 24.5784 71.5571 24.623 71.0616 24.7023V23.8347ZM75.7146 26.9828C75.7146 27.8702 74.337 28.2668 72.6423 28.2668C70.9477 28.2668 69.5701 27.8702 69.5701 26.9828C69.5701 26.0954 70.9427 25.7037 72.6423 25.7037C74.342 25.7037 75.7146 26.1053 75.7146 26.9828ZM72.6522 22.2136C74.8325 22.2136 76.6015 21.4699 76.6015 19.9975C76.6015 18.5251 74.8325 17.7815 72.6522 17.7815C70.472 17.7815 68.703 18.5103 68.703 19.9975C68.703 21.4848 70.472 22.2136 72.6522 22.2136ZM72.6473 18.887C74.0694 18.887 75.224 19.2341 75.224 19.9975C75.224 20.761 74.0694 21.108 72.6473 21.108C71.2251 21.108 70.0706 20.766 70.0706 19.9975C70.0706 19.2291 71.2202 18.887 72.6473 18.887Z" fill="#776C61"/>
<path d="M87.2899 26.7743V18.6389H79.0049V19.7643H85.9768V26.7743H78.2715V27.8948H88.2711V26.7743H87.2899Z" fill="#776C61"/>
<path d="M89.3218 23.4532V24.5736H94.049V25.5006H95.382V24.5736H100V23.4532H89.3218ZM97.8249 25.8279H91.4822V25.0644H90.2038V28.8074H99.1132V25.0644H97.8249V25.8279ZM97.8298 27.7018H91.4822V26.9136H97.8298V27.7018ZM99.0538 21.8122H91.5021V21.2074H99.024V18.4658H90.2236V19.5664H97.7456V20.1365H90.2236V22.9078H99.0488V21.8072L99.0538 21.8122Z" fill="#776C61"/>
<path d="M32.436 18.4504H34.096V23.1155L39.7004 18.4504H42.0541L36.1376 23.1602L42.5496 28.8763H40.1909L34.096 23.2891V28.8763H32.436V18.4504Z" fill="#776C61"/>
<path d="M43.709 18.4504H48.8327C51.2706 18.4504 52.5441 19.2585 52.5441 21.0284C52.5441 22.2876 51.667 23.1552 50.4976 23.3882V23.4328C52.1725 23.6311 52.9653 24.7317 52.9653 25.9761C52.9653 27.5328 51.8256 28.8812 48.9962 28.8812H43.709V18.4504ZM45.369 22.8429H48.7484C50.007 22.8429 50.9337 22.3669 50.9337 21.2564C50.9337 20.2848 50.4778 19.6403 48.5601 19.6403H45.369V22.8429ZM45.369 27.6964H48.6444C50.6809 27.6964 51.2161 26.9031 51.2161 25.8918C51.2161 24.6921 50.3886 24.0277 48.5552 24.0277H45.364V27.6964H45.369Z" fill="#776C61"/>
</svg>
