<svg width="120" height="48" viewBox="0 0 120 48" fill="none" xmlns="http://www.w3.org/2000/svg">
<rect width="120" height="48" fill="white"/>
<path d="M58.6046 22.9181V24.0948H48.5622V22.9181H58.6046ZM56.4356 22.1612V19.9575H49.3699V18.7834H57.7969V22.1639H56.4383L56.4356 22.1612ZM57.7942 25.21V29.3125H49.3672V25.21H57.7942ZM56.4223 26.3359H50.7285V28.1358H56.4223V26.3359Z" fill="#575756"/>
<path d="M59.8107 24.3142V23.2124H69.8531V24.3142H67.6868V25.368H66.4379V24.3142H63.2286V25.368H61.9663V24.3142H59.8107ZM67.4648 27.5128C67.4648 27.8471 67.3953 28.1654 67.2562 28.4676C67.1172 28.7698 66.9246 29.0319 66.6812 29.2512C66.4512 29.4785 66.1758 29.6604 65.8549 29.7967C65.5339 29.9331 65.1916 30 64.8332 30C64.4749 30 64.1352 29.9331 63.817 29.7967C63.4987 29.663 63.2206 29.4812 62.9826 29.2512C62.7445 29.0319 62.5573 28.7698 62.4183 28.4676C62.2792 28.1654 62.2097 27.8471 62.2097 27.5128C62.2097 27.1785 62.2792 26.8603 62.4183 26.5581C62.5573 26.2559 62.7445 25.9938 62.9826 25.7745C63.2179 25.5471 63.496 25.3653 63.817 25.2289C64.1352 25.0952 64.4722 25.0256 64.8332 25.0256C65.1943 25.0256 65.5339 25.0925 65.8549 25.2289C66.1758 25.3626 66.4539 25.5445 66.6812 25.7745C66.9273 25.9938 67.1172 26.2559 67.2562 26.5581C67.3953 26.8603 67.4648 27.1785 67.4648 27.5128ZM67.4033 20.3856C67.4033 20.7118 67.3338 21.0221 67.1947 21.3109C67.0557 21.5997 66.8685 21.8565 66.6304 22.0758C66.4111 22.2871 66.141 22.4609 65.8281 22.5893C65.5125 22.7203 65.1809 22.7845 64.8306 22.7845C64.4802 22.7845 64.1486 22.7203 63.8384 22.5893C63.5281 22.4582 63.2634 22.2871 63.0414 22.0758C62.8034 21.8565 62.6162 21.5997 62.4771 21.3109C62.338 21.0221 62.2685 20.7145 62.2685 20.3856C62.2685 20.0566 62.338 19.7624 62.4771 19.4736C62.6162 19.1848 62.8034 18.928 63.0414 18.7087C63.2607 18.4974 63.5255 18.3263 63.8384 18.1952C64.1486 18.0642 64.4775 18 64.8306 18C65.1836 18 65.5125 18.0642 65.8281 18.1952C66.141 18.3263 66.4111 18.4974 66.6304 18.7087C66.8658 18.928 67.0557 19.1848 67.1947 19.4736C67.3338 19.7624 67.4033 20.0673 67.4033 20.3856ZM66.1437 27.4994C66.1437 27.1411 66.0153 26.8308 65.7639 26.5741C65.5099 26.3174 65.205 26.189 64.8466 26.189C64.4882 26.189 64.178 26.3174 63.9159 26.5741C63.6538 26.8308 63.5255 27.1411 63.5255 27.4994C63.5255 27.8578 63.6565 28.168 63.9159 28.4301C64.178 28.6895 64.4856 28.8206 64.8466 28.8206C65.2077 28.8206 65.5125 28.6895 65.7639 28.4301C66.0153 28.168 66.1437 27.8578 66.1437 27.4994ZM66.0822 20.3963C66.0822 20.062 65.9592 19.7731 65.7158 19.5271C65.4697 19.281 65.1756 19.158 64.8332 19.158C64.4909 19.158 64.1994 19.281 63.956 19.5271C63.7153 19.7731 63.595 20.062 63.595 20.3963C63.595 20.7306 63.7153 21.0328 63.956 21.2735C64.1967 21.5142 64.4882 21.6345 64.8332 21.6345C65.1782 21.6345 65.4697 21.5142 65.7158 21.2735C65.9618 21.0328 66.0822 20.7413 66.0822 20.3963Z" fill="#575756"/>
<path d="M70.7276 26.1784V24.9776H78.0394V26.1784H74.9772V29.131H73.6427V26.1784H70.7276ZM77.205 21.5223C77.205 21.8994 77.1301 22.2524 76.9777 22.5867C76.8279 22.921 76.6166 23.2125 76.3465 23.4559C76.0764 23.71 75.7662 23.9079 75.4158 24.055C75.0655 24.202 74.6884 24.2743 74.2899 24.2743C73.8914 24.2743 73.5143 24.1994 73.164 24.055C72.8136 23.9079 72.5034 23.7073 72.2333 23.4559C71.9632 23.2098 71.7519 22.921 71.5968 22.5867C71.4417 22.2524 71.3641 21.8967 71.3641 21.5223C71.3641 21.1479 71.4417 20.7922 71.5968 20.4579C71.7519 20.1236 71.9632 19.8294 72.2333 19.5754C72.5034 19.3213 72.8136 19.1207 73.164 18.9763C73.5143 18.8292 73.8887 18.757 74.2899 18.757C74.6911 18.757 75.0655 18.8292 75.4158 18.9763C75.7662 19.1234 76.0764 19.324 76.3465 19.5754C76.6166 19.8294 76.8252 20.1236 76.9777 20.4579C77.1274 20.7922 77.205 21.1479 77.205 21.5223ZM75.9079 21.5223C75.9079 21.081 75.7474 20.7066 75.4292 20.3964C75.1109 20.0862 74.7312 19.931 74.2899 19.931C73.8486 19.931 73.4715 20.0862 73.1559 20.3964C72.8404 20.7066 72.6853 21.081 72.6853 21.5223C72.6853 21.9636 72.8404 22.33 73.1559 22.6429C73.4715 22.9558 73.8486 23.1136 74.2899 23.1136C74.7312 23.1136 75.1109 22.9558 75.4292 22.6429C75.7474 22.3273 75.9079 21.9556 75.9079 21.5223ZM78.8578 18.5591H80.2056V29.484H78.8578V18.5591Z" fill="#575756"/>
<path d="M86.437 24.855V26.3233H85.0891V24.855H82.1125V23.7291H89.4002V24.855H86.437ZM84.1584 25.8098V28.0884H91.9596V29.2651H82.7998V25.8125H84.1584V25.8098ZM88.285 20.8755C88.285 21.2098 88.2128 21.5254 88.071 21.8249C87.9266 22.1245 87.7367 22.3866 87.5014 22.6139C87.266 22.8332 86.9879 23.0097 86.6697 23.1407C86.3514 23.2718 86.0117 23.336 85.6534 23.336C85.295 23.336 84.9554 23.2718 84.6371 23.1407C84.3189 23.0097 84.0381 22.8359 83.792 22.6139C83.562 22.3866 83.3775 22.1218 83.2357 21.8249C83.0913 21.5254 83.0218 21.2098 83.0218 20.8755C83.0218 20.5412 83.094 20.2256 83.2357 19.9315C83.3775 19.6373 83.5647 19.3752 83.792 19.1479C84.0381 18.9205 84.3189 18.7414 84.6371 18.6157C84.9554 18.49 85.295 18.4258 85.6534 18.4258C86.0117 18.4258 86.3514 18.49 86.6697 18.6157C86.9879 18.7414 87.266 18.9205 87.5014 19.1479C87.7367 19.3779 87.9293 19.6373 88.071 19.9315C88.2128 20.2256 88.285 20.5412 88.285 20.8755ZM87.0013 20.8862C87.0013 20.5198 86.8702 20.2069 86.6108 19.9502C86.3487 19.6934 86.0305 19.5651 85.6561 19.5651C85.2816 19.5651 84.9634 19.6934 84.7013 19.9502C84.4419 20.2069 84.3082 20.5198 84.3082 20.8862C84.3082 21.2526 84.4392 21.5655 84.7013 21.8223C84.9634 22.079 85.2816 22.2074 85.6561 22.2074C86.0305 22.2074 86.3514 22.079 86.6108 21.8223C86.8702 21.5655 87.0013 21.2526 87.0013 20.8862ZM90.3202 22.7717H88.7637V21.6564H90.3202V18.5595H91.6681V26.4463H90.3202V22.7717Z" fill="#575756"/>
<path d="M100.606 28.3928H93.4412V27.2053H96.3189V25.8467C96.1878 25.8147 96.0648 25.7719 95.9525 25.7237C95.6262 25.5927 95.34 25.4188 95.0967 25.1969C94.8506 24.9695 94.6581 24.7048 94.5217 24.4079C94.3826 24.1084 94.3131 23.7928 94.3131 23.4585C94.3131 23.1242 94.3826 22.8086 94.5217 22.5145C94.6607 22.2203 94.8533 21.9582 95.0967 21.7309C95.34 21.5035 95.6235 21.3243 95.9471 21.1986C96.2707 21.073 96.6157 21.0088 96.9821 21.0088C97.3485 21.0088 97.6935 21.073 98.0118 21.1986C98.33 21.3243 98.6055 21.5035 98.8435 21.7309C99.0895 21.9609 99.2821 22.2203 99.4238 22.5145C99.5683 22.8086 99.6378 23.1242 99.6378 23.4585C99.6378 23.7928 99.5656 24.1084 99.4238 24.4079C99.2794 24.7075 99.0869 24.9695 98.8435 25.1969C98.6055 25.4162 98.33 25.5927 98.0118 25.7237C97.8807 25.7799 97.7443 25.8253 97.6079 25.8574V27.2053H100.609V28.3928H100.606ZM96.2199 19.6502V18.4868H97.6882V19.6502H100.347V20.8135H93.5616V19.6502H96.2199ZM98.314 23.4451C98.314 23.0868 98.1829 22.7792 97.9208 22.5198C97.6587 22.2631 97.3405 22.1347 96.9661 22.1347C96.5917 22.1347 96.2734 22.2631 96.0113 22.5198C95.7492 22.7765 95.6209 23.0868 95.6209 23.4451C95.6209 23.8035 95.7519 24.1164 96.0113 24.3758C96.2734 24.6379 96.5917 24.769 96.9661 24.769C97.3405 24.769 97.6587 24.6379 97.9208 24.3758C98.1829 24.1164 98.314 23.8035 98.314 23.4451ZM101.571 18.559H102.919V29.4839H101.571V18.559Z" fill="#575756"/>
<path d="M43.0807 24.0012C43.0807 31.1812 37.2596 37 30.082 37C22.9044 37 17.0807 31.1788 17.0807 24.0012C17.0807 16.8236 22.9019 11 30.082 11C37.262 11 43.0807 16.8212 43.0807 24.0012Z" fill="white"/>
<path d="M36.2501 23.1905C34.1609 21.771 31.4845 22.3485 30.082 24.4862C28.9075 26.2697 27.1362 26.4929 26.4495 26.4929C24.2147 26.4929 22.6836 24.9206 22.2322 23.2924C22.2274 23.2754 22.2249 23.2633 22.2201 23.2463C22.2152 23.2293 22.2104 23.2099 22.2055 23.1905C22.026 22.5111 21.9823 22.1883 21.9823 21.4652C21.9823 17.5731 25.9739 13.2418 31.7247 13.2418C37.4755 13.2418 40.9818 17.7236 41.8505 20.2156C41.836 20.1743 41.8214 20.1282 41.8068 20.0845C40.1325 15.2121 35.5125 11.7083 30.0747 11.7083C23.2295 11.7083 17.6777 17.2577 17.6777 24.1077C17.6777 30.2273 22.0915 35.4662 28.2136 35.4662C33.0981 35.4662 36.3787 32.7266 37.8856 28.9559C38.7106 26.8933 38.1258 24.4668 36.2501 23.1929V23.1905Z" fill="#003763"/>
<path d="M41.9257 20.4584C41.2026 18.027 37.8055 13.2419 31.7247 13.2419C25.9739 13.2419 21.9823 17.5733 21.9823 21.4654C21.9823 22.1885 22.026 22.5112 22.2055 23.1906C22.1303 22.8946 22.0915 22.5961 22.0915 22.3074C22.0915 18.2551 26.1486 15.4476 30.3198 15.4476C35.9662 15.4476 40.5426 20.024 40.5426 25.6705C40.5426 30.0964 37.9972 33.9255 34.2968 35.7672C39.0673 34.0444 42.4717 29.4753 42.4717 24.1103C42.4717 22.8412 42.3019 21.7202 41.9257 20.4632V20.4584Z" fill="#E4022D"/>
</svg>
