<svg width="120" height="48" viewBox="0 0 120 48" fill="none" xmlns="http://www.w3.org/2000/svg">
<rect width="120" height="48" fill="white"/>
<path d="M40.7882 14H21V34H40.7882V14Z" fill="#B2D234"/>
<path d="M58.3856 18.1035H55.2054V30.3027H58.3856V18.1035Z" fill="#00367B"/>
<path d="M67.7894 23.9308H76.089V27.6549H67.7894V23.9308ZM79.2825 28.0969V23.5021C79.2825 21.7652 77.8558 21.3008 77.1049 21.3008H67.7938V18.1125H64.6136V27.8781C64.6136 27.9138 64.6003 28.789 65.2717 29.4812C65.7885 30.0215 66.5659 30.2938 67.573 30.2938H77.1005C77.8558 30.2938 79.2825 29.8294 79.2825 28.1014" fill="#00367B"/>
<path d="M95.8242 27.6549H87.5246V20.7471H95.8242V27.6549ZM96.045 18.1082H87.2993C86.2923 18.1082 85.5193 18.3805 84.9981 18.9208C84.3311 19.613 84.3443 20.4837 84.3443 20.5239V27.8648C84.3443 27.8871 84.3841 30.2939 87.2949 30.2939H96.0494C98.9558 30.2939 99 27.8916 99 27.8693V20.5149C99 20.4837 99.0132 19.613 98.3463 18.9208C97.8295 18.3805 97.0521 18.1082 96.045 18.1082Z" fill="#00367B"/>
<path d="M33.2219 18.8672V20.0505H35.8014V30.3028H38.9817V16.9695L33.2219 18.8672Z" fill="#00367B"/>
<path d="M44.6663 24.029L50.8855 18.1482H46.7998L40.7882 24.029L46.8572 30.2402H50.9252L44.6663 24.029Z" fill="#00367B"/>
</svg>
