<svg width="120" height="48" viewBox="0 0 120 48" fill="none" xmlns="http://www.w3.org/2000/svg">
<rect width="120" height="48" fill="white"/>
<path d="M57.3665 26.3239V27.9054H58.201V25.9535H59.2791V31.6096H58.201V28.8749H57.3665V30.4661H53.9666V26.3207H55.0447V27.5608H56.2852V26.3207H57.3632L57.3665 26.3239ZM56.2852 29.5417V28.482H55.0447V29.5417H56.2852ZM56.4962 33.1493H61.0586V34.122H55.3467V31.3777H56.4995V33.1493H56.4962ZM60.9287 31.8093H59.8409V25.8472H60.9287V31.8093Z" fill="url(#paint0_linear_738_2976)"/>
<path d="M62.2536 27.0067H64.0298V25.8987H65.1891V27.0067H66.8842V27.9795H65.1891V28.6463C65.1891 28.8202 65.2021 28.978 65.2248 29.123C65.2508 29.2679 65.2865 29.4032 65.3385 29.532C65.3904 29.6609 65.4586 29.7865 65.543 29.9057C65.6275 30.0249 65.7314 30.1505 65.8515 30.2825C65.9295 30.3727 66.0204 30.4694 66.1276 30.5757C66.2347 30.682 66.3451 30.7882 66.4588 30.8978C66.5724 31.0105 66.6893 31.12 66.8062 31.2295C66.9231 31.3423 67.04 31.4486 67.1569 31.5484L66.4231 32.3054C66.2282 32.125 66.0366 31.9414 65.8418 31.7513C65.647 31.5613 65.4684 31.3809 65.2963 31.207C65.1144 31.0202 64.965 30.8591 64.8481 30.727C64.7312 30.5918 64.6565 30.4887 64.6273 30.4178H64.6078C64.5656 30.5016 64.4779 30.6208 64.3448 30.7786C64.2117 30.9332 64.0688 31.091 63.9194 31.2456C63.7506 31.4196 63.5752 31.6 63.3934 31.7803C63.2115 31.9639 62.994 32.1701 62.7407 32.3955L61.9873 31.6322C62.4809 31.1941 62.929 30.7593 63.3284 30.3276C63.4616 30.1763 63.572 30.041 63.6629 29.9121C63.7538 29.7865 63.8252 29.6577 63.8805 29.5288C63.9357 29.4 63.9714 29.2647 63.9941 29.123C64.0168 28.9812 64.0266 28.8234 64.0266 28.643V27.9763H62.2503V27.0035L62.2536 27.0067ZM66.4783 28.8331H67.9558V25.8472H69.1085V34.2122H67.9558V29.8219H66.4783V28.8331Z" fill="url(#paint1_linear_738_2976)"/>
<path d="M70.2516 30.4695H71.3687C71.7129 30.4695 72.0376 30.4695 72.3396 30.4598V30.0475C71.885 29.9831 71.5375 29.8511 71.2972 29.6514C71.0537 29.4549 70.9335 29.2133 70.9335 28.9331V28.6979C70.9335 28.3694 71.1024 28.0956 71.4401 27.8766C71.7778 27.6575 72.2649 27.548 72.9014 27.548C73.5378 27.548 74.0217 27.6575 74.3594 27.8766C74.6971 28.0956 74.866 28.3694 74.866 28.6979V28.9331C74.866 29.2101 74.7458 29.4484 74.5088 29.6481C74.2717 29.8478 73.9242 29.9831 73.4696 30.0475V30.4341C73.8853 30.4212 74.2555 30.4083 74.5705 30.389C74.8887 30.3696 75.1842 30.3471 75.4537 30.3181L75.5349 31.2264C75.2881 31.2554 75.0023 31.2812 74.6776 31.3038C74.3529 31.3263 73.9795 31.3424 73.5541 31.3521C73.1287 31.365 72.6448 31.3746 72.0993 31.3778C71.5538 31.3811 70.94 31.3875 70.2484 31.3875V30.4695H70.2516ZM72.3266 26.44V25.7217H73.4696V26.44H75.1744V27.358H70.5763V26.44H72.3266ZM71.3394 31.7837H77.0059V34.3186H75.8369V32.7081H71.3394V31.7805V31.7837ZM72.8981 28.3919C72.6091 28.3919 72.3883 28.4306 72.2357 28.5079C72.0831 28.5852 72.0084 28.6786 72.0084 28.7881V28.8429C72.0084 28.9492 72.0831 29.0426 72.2357 29.1199C72.3883 29.1972 72.6091 29.2358 72.8981 29.2358C73.1871 29.2358 73.4079 29.1972 73.5606 29.1199C73.7132 29.0426 73.7879 28.9492 73.7879 28.8429V28.7881C73.7879 28.6786 73.7132 28.5884 73.5606 28.5079C73.4079 28.4306 73.1871 28.3919 72.8981 28.3919ZM77.0059 28.3372H78.1229V29.326H77.0059V31.4036H75.8726V25.8441H77.0059V28.3339V28.3372Z" fill="url(#paint2_linear_738_2976)"/>
<path d="M80.9318 30.5242C80.5941 30.5242 80.2888 30.4726 80.0193 30.3663C79.7498 30.26 79.5225 30.1183 79.3341 29.9379C79.1458 29.7576 79.0029 29.5514 78.9022 29.3163C78.8016 29.0811 78.7529 28.8396 78.7529 28.5883V28.0858C78.7529 27.8346 78.8016 27.5898 78.9022 27.3579C79.0029 27.1227 79.1458 26.9166 79.3341 26.7362C79.5225 26.5558 79.7498 26.4141 80.0193 26.3078C80.2888 26.2015 80.5941 26.15 80.9318 26.15C81.2695 26.15 81.5747 26.2015 81.8443 26.3078C82.1138 26.4141 82.3411 26.5558 82.5294 26.7362C82.7178 26.9166 82.8606 27.1227 82.9613 27.3579C83.062 27.593 83.1107 27.8346 83.1107 28.0858V28.5883C83.1107 28.8396 83.062 29.0844 82.9613 29.3163C82.8606 29.5514 82.7178 29.7576 82.5294 29.9379C82.3411 30.1183 82.1138 30.26 81.8443 30.3663C81.5747 30.4726 81.2727 30.5242 80.9318 30.5242ZM80.9318 27.1324C80.7629 27.1324 80.6103 27.1614 80.4739 27.2162C80.3375 27.2741 80.2239 27.3514 80.1297 27.4449C80.0355 27.5415 79.9641 27.651 79.9121 27.7766C79.8602 27.9022 79.8342 28.0311 79.8342 28.1631V28.5046C79.8342 28.6431 79.8602 28.7719 79.9121 28.8943C79.9641 29.0167 80.0355 29.1262 80.1297 29.2229C80.2239 29.3195 80.3375 29.3936 80.4739 29.4516C80.6103 29.5095 80.7629 29.5353 80.9318 29.5353C81.1006 29.5353 81.2533 29.5063 81.3896 29.4516C81.526 29.3936 81.6397 29.3195 81.7339 29.2229C81.828 29.1262 81.8995 29.0167 81.9514 28.8943C82.0034 28.7719 82.0293 28.6399 82.0293 28.5046V28.1631C82.0293 28.0311 82.0034 27.9022 81.9514 27.7766C81.8995 27.651 81.828 27.5383 81.7339 27.4449C81.6397 27.3482 81.526 27.2709 81.3896 27.2162C81.2533 27.1582 81.1006 27.1324 80.9318 27.1324ZM81.2857 33.1493H85.637V34.1221H80.133V31.3165H81.2857V33.1525V33.1493ZM85.5007 31.7997H84.3576V25.844H85.5007V31.7997Z" fill="url(#paint3_linear_738_2976)"/>
<path d="M87.1146 31.5935C87.5692 31.3229 87.9556 31.0846 88.2739 30.8752C88.5954 30.6658 88.8616 30.4726 89.0759 30.2954C89.2903 30.1183 89.4591 29.9508 89.5825 29.7929C89.7059 29.6351 89.8001 29.4741 89.8618 29.313C89.9267 29.152 89.9657 28.9812 89.9852 28.8009C90.0047 28.6205 90.0112 28.4208 90.0112 28.1985V27.5769H87.264V26.5977H91.1639V28.2533C91.1639 28.5528 91.1477 28.8266 91.1185 29.0714C91.0892 29.3162 91.0275 29.5481 90.9431 29.7607C90.8554 29.9733 90.732 30.1795 90.5697 30.376C90.4106 30.5724 90.2027 30.7786 89.9495 30.9912C89.6962 31.2038 89.3844 31.4325 89.0207 31.674C88.6538 31.9156 88.2219 32.1894 87.7186 32.4954L87.1114 31.5967L87.1146 31.5935ZM93.8429 34.2122H92.6901V25.8472H93.8429V34.2122Z" fill="url(#paint4_linear_738_2976)"/>
<path d="M97.3272 30.0377C96.97 30.0377 96.6583 29.9862 96.3888 29.8831C96.1192 29.7801 95.8952 29.6448 95.7133 29.4741C95.5315 29.3033 95.3951 29.1069 95.3042 28.8911C95.2132 28.672 95.1678 28.4433 95.1678 28.2018V27.9505C95.1678 27.7122 95.2132 27.4802 95.3042 27.2612C95.3951 27.0422 95.5315 26.8457 95.7133 26.6782C95.8952 26.5075 96.1192 26.3722 96.3888 26.2691C96.6583 26.1661 96.97 26.1177 97.3272 26.1177C97.6357 26.1177 97.9117 26.1564 98.1553 26.2337C98.4021 26.311 98.6131 26.4173 98.7917 26.5526C98.9703 26.6879 99.1132 26.8457 99.2236 27.0261C99.3308 27.2064 99.4087 27.3965 99.4509 27.593H100.857V25.8472H102V30.1569H100.857V28.5367H99.4607C99.4249 28.7397 99.3535 28.9329 99.2431 29.1165C99.1327 29.3001 98.9898 29.458 98.8112 29.5932C98.6326 29.7285 98.4183 29.8348 98.1715 29.9153C97.9247 29.9959 97.6422 30.0377 97.3272 30.0377ZM97.3272 27.0776C97.1454 27.0776 96.9863 27.1034 96.8499 27.1549C96.7135 27.2064 96.6031 27.2741 96.5154 27.3611C96.4277 27.448 96.3628 27.5447 96.3206 27.6542C96.2783 27.7605 96.2589 27.87 96.2589 27.9763V28.1728C96.2589 28.2823 96.2783 28.3886 96.3206 28.4981C96.3628 28.6076 96.4277 28.7042 96.5154 28.7912C96.6031 28.8782 96.7135 28.9458 96.8499 28.9973C96.9863 29.0489 97.1454 29.0747 97.3272 29.0747C97.5091 29.0747 97.6682 29.0489 97.8046 28.9973C97.9409 28.9458 98.0513 28.8782 98.139 28.7912C98.2267 28.7042 98.2916 28.6076 98.3339 28.4981C98.3761 28.3886 98.3988 28.2823 98.3988 28.1728V27.9763C98.3988 27.87 98.3761 27.7605 98.3339 27.6542C98.2916 27.5447 98.2267 27.448 98.139 27.3611C98.0513 27.2741 97.9409 27.2064 97.8046 27.1549C97.6682 27.1034 97.5091 27.0776 97.3272 27.0776ZM101.997 30.5338V34.2219H96.6291V30.5338H97.7623V31.4776H100.863V30.5338H101.997ZM100.86 33.2846V32.4117H97.7591V33.2846H100.86Z" fill="url(#paint5_linear_738_2976)"/>
<path d="M53.9666 19.1345H54.6843L55.6714 22.0592L56.6976 19.1345H57.3762L55.9539 22.8709H55.3532L53.9666 19.1345Z" fill="#A6A7AA"/>
<path d="M59.9383 22.6068C59.7987 22.7002 59.6363 22.7743 59.448 22.8291C59.2596 22.8838 59.0291 22.9128 58.7563 22.9128C58.5907 22.9128 58.4284 22.8903 58.2692 22.8484C58.1134 22.8065 57.9737 22.7324 57.8471 22.6294C57.7237 22.5263 57.623 22.391 57.5483 22.2203C57.4737 22.0496 57.4347 21.837 57.4347 21.5793V21.283C57.4347 21.0511 57.4672 20.8514 57.5354 20.6839C57.6035 20.5164 57.6977 20.3779 57.8146 20.2683C57.9348 20.1588 58.0712 20.0783 58.2303 20.0268C58.3894 19.9752 58.5615 19.9495 58.7433 19.9495C58.9252 19.9495 59.094 19.9752 59.2467 20.0268C59.4025 20.0783 59.5357 20.1588 59.6461 20.2619C59.7565 20.3682 59.8442 20.5003 59.9059 20.6549C59.9676 20.8127 60 20.9931 60 21.2024V21.6727H58.0712C58.0712 21.9014 58.1329 22.0721 58.253 22.1881C58.3764 22.304 58.5517 22.362 58.7823 22.362C58.9544 22.362 59.1038 22.3427 59.2369 22.3073C59.3701 22.2718 59.5097 22.2106 59.6558 22.1269L59.9286 22.6004L59.9383 22.6068ZM59.3798 21.1863V21.0607C59.3798 20.9834 59.3701 20.9126 59.3473 20.8417C59.3246 20.7708 59.2856 20.7129 59.2337 20.6613C59.1817 20.6098 59.1135 20.5679 59.0356 20.5357C58.9544 20.5035 58.857 20.4906 58.7433 20.4906C58.5225 20.4906 58.3602 20.5486 58.2498 20.6613C58.1393 20.774 58.0841 20.9126 58.0841 21.0768V21.1863H59.3798Z" fill="#A6A7AA"/>
<path d="M62.1172 19.9527C62.2471 19.9527 62.3705 19.972 62.4906 20.0107C62.6108 20.0493 62.7179 20.1105 62.8121 20.1943C62.9063 20.278 62.981 20.3875 63.0362 20.5228C63.0914 20.6581 63.1206 20.8191 63.1206 21.0092V22.8709H62.4614V21.1509C62.4614 20.7322 62.2795 20.5228 61.9126 20.5228C61.8607 20.5228 61.799 20.5293 61.7275 20.5454C61.6561 20.5615 61.5879 20.5905 61.5229 20.6388C61.458 20.6839 61.4028 20.7515 61.3573 20.8385C61.3119 20.9254 61.2891 21.0382 61.2891 21.1799V22.8709H60.6299V20.0139H61.2534V20.3392H61.2632C61.3638 20.1943 61.4905 20.0944 61.6366 20.0364C61.7827 19.9785 61.9451 19.9495 62.1139 19.9495L62.1172 19.9527Z" fill="#A6A7AA"/>
<path d="M64.0623 20.555H63.6012V20.0171H64.0623V19.2859H64.7215V20.0171H65.4489V20.555H64.7215V22.0592C64.7215 22.1816 64.7475 22.2589 64.7962 22.2976C64.8449 22.3362 64.9163 22.3555 65.004 22.3555C65.069 22.3555 65.1339 22.3491 65.1989 22.3362C65.2638 22.3233 65.3352 22.3008 65.4099 22.2718L65.5138 22.7968C65.4554 22.8258 65.3742 22.8516 65.2703 22.8774C65.1664 22.9031 65.0495 22.916 64.9228 22.916C64.7572 22.916 64.6208 22.8967 64.5104 22.858C64.4 22.8194 64.3091 22.7646 64.2442 22.6905C64.1792 22.6197 64.1305 22.5295 64.1045 22.4232C64.0753 22.3169 64.0623 22.1977 64.0623 22.0624V20.555Z" fill="#A6A7AA"/>
<path d="M67.0108 22.9193C66.7088 22.9193 66.4653 22.8291 66.2834 22.6519C66.1016 22.4747 66.0107 22.2106 66.0107 21.8627V20.0171H66.6699V21.7242C66.6699 21.8499 66.6829 21.9529 66.7121 22.0335C66.7413 22.114 66.777 22.1784 66.8257 22.2267C66.8744 22.275 66.9329 22.3073 66.9978 22.3266C67.0628 22.3459 67.1342 22.3556 67.2122 22.3556C67.2771 22.3556 67.3485 22.3459 67.42 22.3234C67.4914 22.304 67.5564 22.2654 67.6148 22.2138C67.6733 22.1623 67.7252 22.0914 67.7642 22.0077C67.8032 21.9207 67.8226 21.8144 67.8226 21.6856V20.0203H68.4818V22.8774H67.8551V22.5359H67.8454C67.8032 22.6036 67.7512 22.6648 67.6895 22.7131C67.6278 22.7614 67.5564 22.8001 67.4817 22.8323C67.407 22.8645 67.3291 22.887 67.2446 22.9031C67.1602 22.9193 67.0823 22.9257 67.0076 22.9257L67.0108 22.9193Z" fill="#A6A7AA"/>
<path d="M70.9335 20.6003C70.8848 20.5809 70.8329 20.5648 70.7777 20.5552C70.7225 20.5455 70.651 20.5391 70.5698 20.5391C70.4789 20.5391 70.3945 20.5552 70.3166 20.5874C70.2386 20.6196 70.1704 20.6615 70.112 20.7194C70.0535 20.7774 70.0081 20.8451 69.9756 20.9224C69.9431 20.9997 69.9269 21.0866 69.9269 21.1801V22.8743H69.2677V20.0173H69.9009V20.4328H69.9107C69.9886 20.2878 70.0893 20.1719 70.2159 20.0849C70.3425 19.9979 70.5081 19.9561 70.716 19.9561C70.7874 19.9561 70.8621 19.9625 70.9368 19.9722C71.0115 19.9818 71.0732 19.9979 71.1251 20.014L70.9368 20.6035L70.9335 20.6003Z" fill="#A6A7AA"/>
<path d="M73.8982 22.6068C73.7586 22.7002 73.5962 22.7743 73.4079 22.8291C73.2196 22.8838 72.989 22.9128 72.7162 22.9128C72.5506 22.9128 72.3883 22.8903 72.2291 22.8484C72.0733 22.8065 71.9336 22.7324 71.807 22.6294C71.6836 22.5263 71.5829 22.391 71.5082 22.2203C71.4336 22.0496 71.3946 21.837 71.3946 21.5793V21.283C71.3946 21.0511 71.4271 20.8514 71.4953 20.6839C71.5635 20.5164 71.6576 20.3779 71.7745 20.2683C71.8947 20.1588 72.0311 20.0783 72.1902 20.0268C72.3493 19.9752 72.5214 19.9495 72.7032 19.9495C72.8851 19.9495 73.0539 19.9752 73.2066 20.0268C73.3624 20.0783 73.4956 20.1588 73.606 20.2619C73.7164 20.3682 73.8041 20.5003 73.8658 20.6549C73.9275 20.8127 73.9599 20.9931 73.9599 21.2024V21.6727H72.0311C72.0311 21.9014 72.0928 22.0721 72.2129 22.1881C72.3363 22.304 72.5117 22.362 72.7422 22.362C72.9143 22.362 73.0637 22.3427 73.1968 22.3073C73.33 22.2718 73.4696 22.2106 73.6157 22.1269L73.8885 22.6004L73.8982 22.6068ZM73.3397 21.1863V21.0607C73.3397 20.9834 73.33 20.9126 73.3072 20.8417C73.2845 20.7708 73.2455 20.7129 73.1936 20.6613C73.1416 20.6098 73.0734 20.5679 72.9955 20.5357C72.9143 20.5035 72.8169 20.4906 72.7032 20.4906C72.4824 20.4906 72.3201 20.5486 72.2097 20.6613C72.0992 20.774 72.044 20.9126 72.044 21.0768V21.1863H73.3397Z" fill="#A6A7AA"/>
<path d="M78.3567 19.1345V19.6853H76.5967V20.6903H78.2496V21.2282H76.5967V22.3234H78.3957V22.8742H75.9343V19.1377H78.36L78.3567 19.1345Z" fill="#A6A7AA"/>
<path d="M80.5616 19.9527C80.6915 19.9527 80.8149 19.972 80.935 20.0107C81.0552 20.0493 81.1623 20.1105 81.2565 20.1943C81.3507 20.278 81.4254 20.3875 81.4806 20.5228C81.5358 20.6581 81.565 20.8191 81.565 21.0092V22.8709H80.9058V21.1509C80.9058 20.7322 80.7239 20.5228 80.357 20.5228C80.305 20.5228 80.2434 20.5293 80.1719 20.5454C80.1005 20.5615 80.0323 20.5905 79.9673 20.6388C79.9024 20.6839 79.8472 20.7515 79.8017 20.8385C79.7563 20.9254 79.7335 21.0382 79.7335 21.1799V22.8709H79.0743V20.0139H79.6946V20.3392H79.7043C79.805 20.1943 79.9284 20.0944 80.0777 20.0364C80.2271 19.9785 80.3862 19.9495 80.5551 19.9495L80.5616 19.9527Z" fill="#A6A7AA"/>
<path d="M82.5067 20.555H82.0456V20.0171H82.5067V19.2859H83.1659V20.0171H83.8933V20.555H83.1659V22.0592C83.1659 22.1816 83.1919 22.2589 83.2406 22.2976C83.2926 22.3362 83.3608 22.3555 83.4484 22.3555C83.5134 22.3555 83.5816 22.3491 83.6433 22.3362C83.7082 22.3233 83.7797 22.3008 83.8543 22.2718L83.9583 22.7968C83.8998 22.8258 83.8186 22.8516 83.7147 22.8774C83.6108 22.9031 83.4971 22.916 83.3673 22.916C83.2049 22.916 83.0653 22.8967 82.9549 22.858C82.8444 22.8194 82.7535 22.7646 82.6886 22.6905C82.6236 22.6197 82.5749 22.5295 82.5457 22.4232C82.5165 22.3169 82.5035 22.1977 82.5035 22.0624V20.555H82.5067Z" fill="#A6A7AA"/>
<path d="M86.8288 22.6068C86.6892 22.7002 86.5268 22.7743 86.3385 22.8291C86.1502 22.8838 85.9196 22.9128 85.6468 22.9128C85.4812 22.9128 85.3189 22.8903 85.1597 22.8484C85.0006 22.8065 84.8642 22.7324 84.7376 22.6294C84.6142 22.5263 84.5135 22.391 84.4389 22.2203C84.3642 22.0496 84.3252 21.837 84.3252 21.5793V21.283C84.3252 21.0511 84.3577 20.8514 84.4259 20.6839C84.4941 20.5164 84.5882 20.3779 84.7051 20.2683C84.8253 20.1588 84.9617 20.0783 85.1208 20.0268C85.2799 19.9752 85.452 19.9495 85.6338 19.9495C85.8157 19.9495 85.9845 19.9752 86.1372 20.0268C86.293 20.0783 86.4262 20.1588 86.5366 20.2619C86.647 20.3682 86.7347 20.5003 86.7964 20.6549C86.8581 20.8127 86.8905 20.9931 86.8905 21.2024V21.6727H84.9617C84.9617 21.9014 85.0234 22.0721 85.1435 22.1881C85.2669 22.304 85.4422 22.362 85.6728 22.362C85.8449 22.362 85.9943 22.3427 86.1274 22.3073C86.2606 22.2718 86.4002 22.2106 86.5463 22.1269L86.8191 22.6004L86.8288 22.6068ZM86.2671 21.1863V21.0607C86.2671 20.9834 86.2573 20.9126 86.2346 20.8417C86.2119 20.7708 86.1729 20.7129 86.1209 20.6613C86.069 20.6098 86.0008 20.5679 85.9228 20.5357C85.8417 20.5035 85.7442 20.4906 85.6306 20.4906C85.4098 20.4906 85.2474 20.5486 85.137 20.6613C85.0266 20.774 84.9714 20.9126 84.9714 21.0768V21.1863H86.2671Z" fill="#A6A7AA"/>
<path d="M89.1896 20.6003C89.1409 20.5809 89.0889 20.5648 89.0337 20.5552C88.9785 20.5455 88.9071 20.5391 88.8259 20.5391C88.735 20.5391 88.6505 20.5552 88.5726 20.5874C88.4947 20.6196 88.4265 20.6615 88.368 20.7194C88.3096 20.7774 88.2641 20.8451 88.2316 20.9224C88.1992 20.9997 88.1829 21.0866 88.1829 21.1801V22.8743H87.5237V20.0173H88.157V20.4328H88.1667C88.2446 20.2878 88.3453 20.1719 88.4719 20.0849C88.5986 19.9979 88.7642 19.9561 88.972 19.9561C89.0467 19.9561 89.1181 19.9625 89.1928 19.9722C89.2643 19.9818 89.3292 19.9979 89.3812 20.014L89.1928 20.6035L89.1896 20.6003Z" fill="#A6A7AA"/>
<path d="M91.2451 22.9128C91.0697 22.9128 90.9204 22.8838 90.797 22.8226C90.6703 22.7614 90.5697 22.6809 90.495 22.581V23.9822H89.8358V20.0171H90.469V20.3263C90.5177 20.2522 90.5762 20.1942 90.6411 20.1459C90.706 20.0976 90.7775 20.0589 90.8489 20.0332C90.9204 20.0074 90.9951 19.9848 91.0697 19.972C91.1444 19.9591 91.2159 19.9526 91.2808 19.9526C91.4692 19.9526 91.6315 19.9816 91.7744 20.0396C91.9173 20.0976 92.0342 20.1813 92.1283 20.2844C92.2225 20.3907 92.294 20.5163 92.3394 20.6677C92.3881 20.8191 92.4109 20.9834 92.4109 21.167V21.6695C92.4109 21.8627 92.3849 22.0367 92.3297 22.188C92.2745 22.3394 92.1965 22.4683 92.0959 22.5778C91.9952 22.6841 91.8718 22.7678 91.7289 22.8226C91.5861 22.8806 91.4269 22.9096 91.2483 22.9096L91.2451 22.9128ZM91.7517 21.2733C91.7517 21.0317 91.703 20.8449 91.6088 20.7096C91.5146 20.5775 91.362 20.5099 91.1477 20.5099C90.9334 20.5099 90.7613 20.5743 90.6476 20.6999C90.5339 20.8255 90.4787 20.9866 90.4787 21.1863V21.7919C90.4787 21.8595 90.495 21.9239 90.5307 21.9916C90.5664 22.0592 90.6119 22.1204 90.6736 22.1719C90.732 22.2267 90.8035 22.2686 90.8879 22.304C90.9723 22.3394 91.0632 22.3555 91.1639 22.3555C91.3555 22.3555 91.5016 22.2879 91.599 22.1558C91.6997 22.0238 91.7484 21.8369 91.7484 21.5986V21.2733H91.7517Z" fill="#A6A7AA"/>
<path d="M94.7034 20.6003C94.6547 20.5809 94.6027 20.5648 94.5475 20.5552C94.4923 20.5455 94.4209 20.5391 94.3397 20.5391C94.2488 20.5391 94.1644 20.5552 94.0864 20.5874C94.0085 20.6196 93.9403 20.6615 93.8819 20.7194C93.8234 20.7774 93.7779 20.8451 93.7455 20.9224C93.713 20.9997 93.6968 21.0866 93.6968 21.1801V22.8743H93.0376V20.0173H93.6708V20.4328H93.6805C93.7585 20.2878 93.8591 20.1719 93.9858 20.0849C94.1124 19.9979 94.278 19.9561 94.4858 19.9561C94.5605 19.9561 94.632 19.9625 94.7067 19.9722C94.7781 19.9818 94.843 19.9979 94.895 20.014L94.7067 20.6035L94.7034 20.6003Z" fill="#A6A7AA"/>
<path d="M95.3464 18.8899H96.0348V19.5953H95.3464V18.8899ZM95.3626 20.014H96.0218V22.8711H95.3626V20.014Z" fill="#A6A7AA"/>
<path d="M97.7721 22.3589C97.9215 22.3589 98.0416 22.3395 98.1293 22.2977C98.217 22.259 98.2624 22.1817 98.2624 22.0722V22.04C98.2624 21.9917 98.2559 21.9498 98.2429 21.9176C98.23 21.8854 98.204 21.8564 98.1618 21.8306C98.1195 21.8048 98.0611 21.7823 97.9799 21.763C97.902 21.7436 97.7948 21.7179 97.6584 21.6889C97.4831 21.6534 97.337 21.6148 97.2103 21.5665C97.0869 21.5182 96.9863 21.4634 96.9083 21.3925C96.8304 21.3249 96.7719 21.2411 96.7362 21.1445C96.7005 21.0479 96.681 20.9319 96.681 20.7966V20.7451C96.681 20.6485 96.7005 20.5518 96.7427 20.4584C96.7817 20.3618 96.8466 20.2781 96.9375 20.2008C97.0285 20.1234 97.1421 20.0622 97.2818 20.0172C97.4214 19.9688 97.5935 19.9463 97.7948 19.9463C97.9637 19.9463 98.139 19.9624 98.3241 19.9914C98.5125 20.0236 98.6878 20.0945 98.8534 20.204L98.5709 20.6742C98.4735 20.6098 98.3631 20.5615 98.2429 20.5357C98.1228 20.5068 97.9994 20.4939 97.876 20.4939C97.6714 20.4939 97.5285 20.5164 97.4539 20.5647C97.3759 20.6098 97.337 20.6742 97.337 20.7483V20.7805C97.337 20.8321 97.3435 20.8739 97.3597 20.9062C97.3727 20.9384 97.3987 20.9641 97.4376 20.9867C97.4766 21.0092 97.5318 21.0286 97.6 21.0447C97.6714 21.0608 97.7591 21.0801 97.8728 21.1026C98.0546 21.1413 98.2105 21.1799 98.3469 21.2218C98.48 21.2637 98.5904 21.3185 98.6748 21.3861C98.7593 21.4537 98.8242 21.5375 98.8664 21.6406C98.9086 21.7436 98.9281 21.8693 98.9281 22.0206V22.0786C98.9281 22.1881 98.9021 22.2944 98.8534 22.3943C98.8015 22.4941 98.73 22.5843 98.6326 22.6584C98.5352 22.7357 98.415 22.7937 98.2722 22.8388C98.1293 22.8839 97.9669 22.9064 97.7851 22.9064C97.5448 22.9064 97.3175 22.8742 97.1032 22.813C96.8888 22.7518 96.7135 22.6649 96.5739 22.5553L96.8661 22.0561C96.996 22.143 97.1324 22.2139 97.2785 22.2687C97.4246 22.3234 97.587 22.3524 97.7688 22.3524L97.7721 22.3589Z" fill="#A6A7AA"/>
<path d="M101.847 22.6068C101.708 22.7002 101.545 22.7743 101.357 22.8291C101.169 22.8838 100.938 22.9128 100.665 22.9128C100.497 22.9128 100.337 22.8903 100.178 22.8484C100.022 22.8065 99.8828 22.7324 99.7562 22.6294C99.6328 22.5263 99.5321 22.391 99.4574 22.2203C99.3827 22.0496 99.3438 21.837 99.3438 21.5793V21.283C99.3438 21.0511 99.3795 20.8514 99.4477 20.6839C99.5159 20.5164 99.61 20.3779 99.7269 20.2683C99.8438 20.1588 99.9835 20.0783 100.143 20.0268C100.302 19.9752 100.474 19.9495 100.659 19.9495C100.844 19.9495 101.006 19.9752 101.162 20.0268C101.318 20.0783 101.451 20.1588 101.562 20.2619C101.672 20.3682 101.76 20.5003 101.821 20.6549C101.883 20.8127 101.916 20.9931 101.916 21.2024V21.6727H99.9867C99.9867 21.9014 100.048 22.0721 100.169 22.1881C100.292 22.304 100.467 22.362 100.695 22.362C100.867 22.362 101.016 22.3427 101.149 22.3073C101.282 22.2718 101.422 22.2106 101.568 22.1269L101.841 22.6004L101.847 22.6068ZM101.289 21.1863V21.0607C101.289 20.9834 101.276 20.9126 101.256 20.8417C101.234 20.7708 101.195 20.7129 101.143 20.6613C101.091 20.6098 101.026 20.5679 100.945 20.5357C100.863 20.5035 100.766 20.4906 100.652 20.4906C100.432 20.4906 100.269 20.5486 100.159 20.6613C100.048 20.774 99.9932 20.9126 99.9932 21.0768V21.1863H101.289Z" fill="#A6A7AA"/>
<path d="M38.8603 24.2465L46.407 31.8192H42.3479L35.7755 25.2257V36.0001H49.8036V17.1892H45.9361L38.8603 24.2465Z" fill="url(#paint6_linear_738_2976)"/>
<path d="M23.6567 14.8248L18 14.8215L25.644 22.4941L25.7415 33.204L28.5828 30.376L28.4886 19.6724L23.6567 14.8248Z" fill="url(#paint7_linear_738_2976)"/>
<path d="M46.4849 12.0129L20.8446 12L23.6567 14.8249L28.4886 19.6725L28.5828 30.3761L32.5769 26.4045V15.2887H35.8859V23.1158V23.1223L46.696 12.3769L47.0564 12.0161L46.4849 12.0129Z" fill="#CFD1D2"/>
<defs>
<linearGradient id="paint0_linear_738_2976" x1="57.5094" y1="25.8472" x2="57.5094" y2="34.122" gradientUnits="userSpaceOnUse">
<stop stop-color="#1C3969"/>
<stop offset="0.05" stop-color="#1C3A6B"/>
<stop offset="1" stop-color="#284EA1"/>
</linearGradient>
<linearGradient id="paint1_linear_738_2976" x1="65.5495" y1="11.9999" x2="65.5495" y2="34.2122" gradientUnits="userSpaceOnUse">
<stop stop-color="#1C3969"/>
<stop offset="0.05" stop-color="#1C3A6B"/>
<stop offset="1" stop-color="#284EA1"/>
</linearGradient>
<linearGradient id="paint2_linear_738_2976" x1="74.1873" y1="25.7217" x2="74.1873" y2="34.3186" gradientUnits="userSpaceOnUse">
<stop stop-color="#1C3969"/>
<stop offset="0.05" stop-color="#1C3A6B"/>
<stop offset="1" stop-color="#284EA1"/>
</linearGradient>
<linearGradient id="paint3_linear_738_2976" x1="82.1982" y1="11.9999" x2="82.1982" y2="11.9999" gradientUnits="userSpaceOnUse">
<stop stop-color="#1C3969"/>
<stop offset="0.05" stop-color="#1C3A6B"/>
<stop offset="1" stop-color="#284EA1"/>
</linearGradient>
<linearGradient id="paint4_linear_738_2976" x1="90.4788" y1="11.9999" x2="90.4788" y2="34.2122" gradientUnits="userSpaceOnUse">
<stop stop-color="#1C3969"/>
<stop offset="0.05" stop-color="#1C3A6B"/>
<stop offset="1" stop-color="#284EA1"/>
</linearGradient>
<linearGradient id="paint5_linear_738_2976" x1="98.5807" y1="11.9999" x2="98.5807" y2="34.2219" gradientUnits="userSpaceOnUse">
<stop stop-color="#1C3969"/>
<stop offset="0.05" stop-color="#1C3A6B"/>
<stop offset="1" stop-color="#284EA1"/>
</linearGradient>
<linearGradient id="paint6_linear_738_2976" x1="42.7895" y1="17.1892" x2="42.7895" y2="36.0001" gradientUnits="userSpaceOnUse">
<stop stop-color="#1C3969"/>
<stop offset="0.05" stop-color="#1C3A6B"/>
<stop offset="1" stop-color="#284EA1"/>
</linearGradient>
<linearGradient id="paint7_linear_738_2976" x1="23.293" y1="14.8215" x2="23.293" y2="33.204" gradientUnits="userSpaceOnUse">
<stop stop-color="#1C3969"/>
<stop offset="0.05" stop-color="#1C3A6B"/>
<stop offset="1" stop-color="#284EA1"/>
</linearGradient>
</defs>
</svg>
