<svg width="114" height="48" viewBox="0 0 114 48" fill="none" xmlns="http://www.w3.org/2000/svg">
<g clip-path="url(#clip0_738_2842)">
<path d="M78.7856 20.292H82.5144V26.3328H85.8739L90.529 32.9999H86.0229L82.5144 27.9537V32.9999H78.7856V20.292Z" fill="#C8C8C8"/>
<path d="M94 15L91.7158 26.8282L90.6146 24.8279C90.6146 24.8279 89.8812 23.5464 89.2775 22.9662L84.4811 28.2807L81.671 25.9285L86.4686 20.6128C85.7871 20.1161 84.3671 19.597 84.3671 19.597L82.1568 18.8246L94 15Z" fill="#E4007F"/>
<path d="M28.0289 19.2552C28.0263 18.7935 27.9356 18.4341 27.727 18.0298H30.0526C30.0811 18.0298 30.1044 18.0498 30.1044 18.066V29.989C30.1044 30.004 30.0824 30.0202 30.0526 30.0202H28.0807C28.0496 30.0202 28.0289 30.004 28.0289 29.989V19.2552Z" fill="#003A70"/>
<path d="M20.5312 18.7683V20.2158H24.0734C24.3066 20.2158 24.2898 20.403 24.2898 20.4704C24.2898 21.0731 24.2211 21.6346 24.1019 22.1575H20.4327V23.6049H23.607C22.3969 26.2329 20 27.4857 20 27.4857L21.5962 28.4865C25.9987 25.8473 26.3912 22.261 26.3912 19.5495V18.7671H20.5312V18.7683Z" fill="#003A70"/>
<path d="M42.3972 23.2981H31.4169C31.3858 23.2981 31.3625 23.3143 31.3625 23.3305V24.677C31.3625 24.6919 31.3845 24.7081 31.4169 24.7081H35.6976V25.7626H32.3212C32.5389 26.1744 32.6309 26.5387 32.6309 27.0054V29.7569C32.6309 29.7756 32.6555 29.7906 32.6866 29.7906H41.099C41.1288 29.7906 41.1534 29.7756 41.1534 29.7569V25.795C41.1534 25.7775 41.1288 25.7626 41.099 25.7626H38.0828V24.7081H42.3972C42.4257 24.7081 42.4503 24.6932 42.4503 24.677V23.3305C42.4503 23.3131 42.4257 23.2981 42.3972 23.2981ZM39.083 27.1539V28.4167H34.6533V27.1539H39.083Z" fill="#003A70"/>
<path d="M40.9073 20.2333C40.9073 21.682 39.0986 22.8562 36.8689 22.8562C34.6391 22.8562 32.8304 21.682 32.8304 20.2333C32.8304 18.7846 34.6378 17.6104 36.8689 17.6104C39.0999 17.6104 40.9073 18.7846 40.9073 20.2333ZM36.8689 19.0329C35.9244 19.0329 35.1599 19.5707 35.1599 20.2333C35.1599 20.8959 35.9257 21.4325 36.8689 21.4325C37.8121 21.4325 38.5791 20.8959 38.5791 20.2333C38.5791 19.5707 37.8134 19.0329 36.8689 19.0329Z" fill="#003A70"/>
<path d="M63.6439 20.2172H64.749V18.8209C64.749 18.7935 64.7257 18.771 64.6972 18.771H57.25C57.2215 18.771 57.1982 18.7935 57.1982 18.8209V20.2172H58.3034V25.6091L57.2435 25.6204C57.215 25.6204 57.1684 25.6204 57.1399 25.6204H56.9339V27.0167C56.9339 27.0441 56.9572 27.0666 56.9857 27.0666H57.1464C57.1749 27.0641 57.2215 27.0641 57.25 27.0641L60.4567 27.0267C60.4852 27.0267 60.5085 27.0267 60.5098 27.0267C60.7987 27.0267 61.1524 27.0204 61.5579 27.0079C61.9764 26.9942 62.3949 26.9792 62.803 26.963C63.2254 26.9368 63.6309 26.9119 64.0248 26.8857C64.394 26.8619 64.9615 26.817 64.9615 26.817C64.99 26.8145 65.0133 26.7908 65.0133 26.7634V25.3795C65.0133 25.3795 64.9343 25.3883 64.898 25.392C64.6531 25.4207 64.4109 25.4432 64.1776 25.4619C64.0002 25.4756 63.6426 25.4881 63.6426 25.4881V20.2185L63.6439 20.2172ZM61.5307 25.5754H61.5281L61.269 25.5817C61.2405 25.5817 61.1939 25.5817 61.1654 25.5817H60.6005C60.6005 25.5817 60.5759 25.5817 60.5473 25.5829H60.3854V20.216H61.58V25.5729H61.5307V25.5754Z" fill="#003A70"/>
<path d="M67.9557 18.0298C67.9557 18.0298 65.6819 18.0298 65.6443 18.0298C65.8529 18.4341 65.9436 18.7935 65.9462 19.2552V29.9691C65.9462 29.9965 65.9695 30.019 65.998 30.019H67.9557C67.9842 30.019 68.0075 29.9965 68.0075 29.9691V18.0797C68.0075 18.0522 67.9842 18.0298 67.9557 18.0298Z" fill="#003A70"/>
<path d="M76.2424 22.3686C75.8667 22.4073 75.4858 22.4435 75.1113 22.4772C74.7149 22.5021 74.3249 22.5233 73.9582 22.5396C73.589 22.5558 73.0137 22.5645 73.0137 22.5645C72.9852 22.5645 72.9386 22.5645 72.9101 22.5645H71.7855C71.757 22.5645 71.7337 22.5421 71.7337 22.5146L71.7363 21.8707H76.1802V20.4232H71.7337L71.7363 19.8093H76.1802V18.4117C76.1802 18.3843 76.1569 18.3618 76.1284 18.3618H69.6672C69.6387 18.3618 69.6154 18.3843 69.6154 18.4117V23.9621C69.6154 23.9895 69.6387 24.012 69.6672 24.012H69.8291C69.8576 24.0108 69.9043 24.0095 69.9328 24.0095L72.5991 23.9846C72.6276 23.9846 72.651 23.9846 72.651 23.9846C73.0487 23.9846 73.4789 23.9733 73.9258 23.9521C74.3638 23.9309 74.803 23.9034 75.2279 23.8685C75.6451 23.8348 76.0377 23.7949 76.3966 23.7525L76.4121 23.75C76.429 23.7475 76.4432 23.7238 76.4432 23.6963V22.3461C76.4432 22.3461 76.3111 22.3599 76.2411 22.3674L76.2424 22.3686Z" fill="#003A70"/>
<path d="M79.8558 21.8469H81.4831C81.5116 21.8469 81.535 21.8245 81.535 21.797V20.3408C81.535 20.3133 81.5116 20.2909 81.4831 20.2909H79.8558L79.8584 18.0785C79.8584 18.051 79.8351 18.0286 79.8066 18.0286C79.8066 18.0286 77.5328 18.0286 77.4952 18.0286C77.7038 18.4329 77.7945 18.7922 77.7971 19.2539V23.952C77.7971 23.9795 77.8204 24.0019 77.8489 24.0019H79.8066C79.8351 24.0019 79.8584 23.9795 79.8584 23.952L79.8558 21.8457V21.8469Z" fill="#003A70"/>
<path d="M79.8584 24.536C79.8584 24.5085 79.8351 24.4861 79.8066 24.4861H71.7842C71.7557 24.4861 71.7324 24.5085 71.7324 24.536V25.9336H77.7673V26.525H71.7842C71.7557 26.525 71.7324 26.5475 71.7324 26.575V29.9691C71.7324 29.9965 71.7557 30.019 71.7842 30.019H79.8066C79.8351 30.019 79.8584 29.9965 79.8584 29.9691V28.5715H73.7781V27.9725H79.8584V24.536Z" fill="#003A70"/>
<path d="M55.5373 18.0298H53.6366C53.6366 18.0298 53.3205 18.0298 53.2829 18.0298C53.4915 18.4341 53.5822 18.7935 53.5848 19.2552V22.0016H52.6882V18.0797C52.6882 18.0522 52.6649 18.0298 52.6364 18.0298H50.3807C50.5893 18.4341 50.68 18.7935 50.6826 19.2552V29.9691C50.6826 29.9965 50.7059 30.019 50.7344 30.019H52.6364C52.6649 30.019 52.6882 29.9965 52.6882 29.9691V23.6725H53.5848V29.9691C53.5848 29.9965 53.6081 30.019 53.6366 30.019H55.5373C55.5658 30.019 55.5891 29.9965 55.5891 29.9691V18.0797C55.5891 18.0522 55.5658 18.0298 55.5373 18.0298Z" fill="#003A70"/>
<path d="M43.8936 20.2161H47.5265C47.5965 20.2161 47.6483 20.271 47.6418 20.3371C47.6172 20.7239 47.568 20.9298 47.5317 21.1257C47.489 21.3616 47.4358 21.6299 47.3762 21.8545H43.8017V23.297H46.687C46.4071 23.9895 46.0392 24.4088 45.6401 24.8331C45.1387 25.3659 44.5363 25.8663 43.847 26.3192L43.5374 26.5239L45.2242 27.6344L45.3758 27.5296C46.8826 26.4877 47.993 25.2598 48.677 23.8785C49.3572 22.5033 49.7174 20.8687 49.7459 19.0206L49.7498 18.7673H43.8924V20.2148L43.8936 20.2161Z" fill="#003A70"/>
</g>
<defs>
<clipPath id="clip0_738_2842">
<rect width="74" height="18" fill="white" transform="translate(20 15)"/>
</clipPath>
</defs>
</svg>
